<svg width="301" height="400" viewBox="0 0 301 400" fill="none" xmlns="http://www.w3.org/2000/svg">
<path d="M97.1271 175.195C97.1271 175.195 103.803 182.826 104.395 187.128L98.588 190.828L91.8851 177.835L88.35 160.491C88.0179 160.123 87.7797 159.664 87.6596 159.162C87.5394 158.659 87.5416 158.131 87.6659 157.63C87.7902 157.128 88.0322 156.672 88.3673 156.308C88.7024 155.944 89.1187 155.684 89.5739 155.555C90.0291 155.426 90.507 155.433 90.9591 155.574C91.4112 155.716 91.8214 155.987 92.1481 156.361C92.4748 156.734 92.7063 157.197 92.8191 157.702C92.9319 158.206 92.922 158.735 92.7904 159.234L97.1271 175.195Z" fill="#FFB6B6"/>
<path d="M159.044 156.897C158.929 156.393 158.937 155.865 159.067 155.365C159.196 154.866 159.443 154.413 159.782 154.053C160.121 153.693 160.54 153.439 160.997 153.316C161.453 153.193 161.931 153.206 162.381 153.353C162.832 153.501 163.239 153.778 163.562 154.155C163.885 154.533 164.111 154.999 164.219 155.505C164.326 156.011 164.31 156.539 164.174 157.036C164.037 157.533 163.783 157.982 163.439 158.336L159.325 175.523L152.191 188.232L146.511 184.296C147.248 180.021 154.175 172.67 154.175 172.67L159.044 156.897Z" fill="#FFB6B6"/>
<path d="M53.2555 219.237C53.2137 209.108 56.7283 199.561 60.6348 190.579C64.6715 181.297 69.2669 172.191 71.5481 162.127C72.8802 156.586 73.2041 150.807 72.5013 145.126C72.3634 144.113 70.972 144.543 71.109 145.55C72.5078 155.829 69.4843 166.066 65.7191 175.336C61.9854 184.529 57.3308 193.274 54.4177 202.86C52.7422 208.124 51.8617 213.657 51.8117 219.237C51.8182 219.444 51.8971 219.641 52.0318 219.784C52.1664 219.928 52.3464 220.009 52.5336 220.009C52.7209 220.009 52.9008 219.928 53.0355 219.784C53.1701 219.641 53.249 219.444 53.2555 219.237Z" fill="#E6E6E6"/>
<path d="M95.2163 222.636C94.9077 218.324 97.6597 214.727 100.908 212.747C105.03 210.235 110.019 210.451 114.575 210.601C119.248 210.807 123.928 210.561 128.563 209.865C139.508 208.106 149.922 203.512 158.957 196.457C167.993 189.403 175.394 180.087 180.558 169.269C184.843 160.297 187.859 149.952 186.654 139.706C186.509 138.46 186.301 137.224 186.033 136.003C185.813 135.005 184.421 135.428 184.641 136.428C186.884 146.607 184.313 157.269 180.235 166.458C176.487 174.882 171.375 182.475 165.153 188.859C158.636 195.546 151.001 200.761 142.677 204.21C138.354 205.998 133.883 207.311 129.327 208.129C124.71 208.919 120.035 209.221 115.366 209.03C110.724 208.88 105.805 208.609 101.442 210.687C98.0279 212.314 94.8584 215.535 93.9789 219.653C93.7705 220.629 93.7009 221.636 93.7725 222.636C93.8453 223.654 95.2898 223.663 95.2163 222.636Z" fill="#E6E6E6"/>
<path d="M242.265 75.013C240.566 74.1666 238.896 73.352 237.298 72.6014C237.057 72.4896 236.817 72.3725 236.576 72.2607L236.547 72.2447C235.108 71.5633 233.666 70.8961 232.22 70.2431C231.21 69.7852 230.204 69.3327 229.193 68.8909C228.799 68.7099 228.404 68.5395 228.005 68.3692C227.364 68.087 226.72 67.8102 226.079 67.5334C225.55 67.3045 225.016 67.0809 224.486 66.8573C223.875 66.5964 223.264 66.3462 222.658 66.0907C221.936 65.7926 221.215 65.498 220.497 65.207C220.489 65.2027 220.481 65.2008 220.473 65.2016C219.929 64.9781 219.385 64.7598 218.846 64.5468C211.526 61.6295 204.1 59.021 196.765 56.7904C196.501 56.7105 196.236 56.6307 195.971 56.5508C195.514 56.4124 195.057 56.274 194.6 56.1356C193.791 55.896 192.979 55.6618 192.164 55.4329C191.399 55.2093 190.629 54.9963 189.859 54.7834C189.181 54.5971 188.502 54.4107 187.819 54.2297C187.15 54.0487 186.481 53.8731 185.807 53.7027C183.8 53.181 181.796 52.6877 179.796 52.2228C179.782 52.2184 179.767 52.2166 179.753 52.2174C179.271 52.1003 178.795 51.9885 178.314 51.8821C171.008 50.2264 163.577 48.8955 156.228 47.9213C155.867 47.8734 155.506 47.8255 155.145 47.7829H155.136C155.073 47.7723 155.006 47.7669 154.943 47.7616C154.337 47.6817 153.73 47.6072 153.124 47.538C152.325 47.4422 151.531 47.3517 150.732 47.2665C148.841 47.0589 146.952 46.8779 145.067 46.7235C144.591 46.6809 144.119 46.6436 143.648 46.6117C143.104 46.5638 142.56 46.5265 142.021 46.4893C141.463 46.4467 140.905 46.4094 140.346 46.3775C140.134 46.3615 139.928 46.3509 139.721 46.3402C139.461 46.3189 139.196 46.3083 138.936 46.2923C138.546 46.271 138.156 46.2497 137.767 46.2284C130.432 45.8398 123.006 45.8078 115.691 46.1326C115.287 46.1486 114.882 46.1699 114.473 46.1911H114.459C114.165 46.2071 113.872 46.2178 113.573 46.2337C113.467 46.2391 113.357 46.2444 113.251 46.2497C112.524 46.2923 111.797 46.3349 111.071 46.3828C110.296 46.4307 109.526 46.4839 108.756 46.5425C108.27 46.5798 107.788 46.617 107.307 46.6543C106.989 46.6809 106.672 46.7075 106.349 46.7342C104.338 46.9045 102.326 47.1015 100.329 47.3251C99.6597 47.3996 98.9956 47.4741 98.3314 47.554C97.9609 47.5966 97.5951 47.6392 97.2293 47.6871C89.8948 48.6027 82.464 49.8964 75.1487 51.5254C74.6674 51.6318 74.1814 51.7436 73.6953 51.8554C73.6857 51.8554 73.676 51.8608 73.6664 51.8608C73.5942 51.8767 73.5172 51.8927 73.445 51.914C72.9445 52.0258 72.4392 52.1429 71.9387 52.2654C71.3852 52.3931 70.8365 52.5262 70.2831 52.6593C69.8211 52.7711 69.3591 52.8882 68.897 53.0053C67.8094 53.2768 66.7169 53.5537 65.6292 53.8465C63.4154 54.4321 61.2032 55.0514 58.9925 55.7044C58.492 55.8534 57.9867 56.0025 57.4813 56.1569C57.4776 56.1573 57.4742 56.1592 57.4717 56.1622C57.2118 56.2367 56.9471 56.3166 56.6872 56.3964C49.372 58.6217 41.946 61.2515 34.6114 64.2221C34.0724 64.4404 33.5334 64.6586 32.9896 64.8876C32.9763 64.8886 32.9632 64.8922 32.9511 64.8982C31.4928 65.4998 30.0265 66.1173 28.5523 66.7508C28.0181 66.985 27.479 67.2193 26.94 67.4535C26.4202 67.6824 25.8957 67.9114 25.3759 68.1456C24.9187 68.3479 24.4663 68.5502 24.0091 68.7578C23.6433 68.9228 23.2824 69.0879 22.9166 69.2529C21.6653 69.8278 20.4156 70.4099 19.1675 70.999C18.4119 71.361 17.6515 71.723 16.8959 72.0904C16.6505 72.2075 16.4002 72.3246 16.1548 72.447C14.3356 73.3361 12.68 74.1612 11.0918 74.9757C9.4004 75.841 7.96746 77.2225 6.96146 78.9577C5.95545 80.6929 5.41819 82.7098 5.41284 84.7711V103.558C5.41283 105.232 5.76538 106.883 6.44253 108.379C7.11968 109.876 8.1028 111.178 9.31393 112.181C10.5251 113.185 11.9309 113.862 13.4199 114.16C14.9089 114.457 16.4401 114.367 17.8921 113.896C18.6092 113.662 19.3263 113.428 20.0482 113.194C20.6498 112.997 21.2562 112.805 21.8578 112.613C22.5171 112.406 23.1717 112.198 23.831 111.991C25.3374 111.527 26.8534 111.064 28.3694 110.617C29.0768 110.409 29.7843 110.202 30.4918 109.994C31.6035 109.669 32.7152 109.355 33.827 109.041C34.135 108.956 34.443 108.871 34.751 108.786C39.5877 107.444 44.4486 106.199 49.2709 105.07C49.7666 104.953 50.2623 104.841 50.7532 104.729C52.7793 104.261 54.7942 103.817 56.7979 103.398L58.2417 103.095H58.2562C58.7278 102.994 59.1995 102.898 59.6711 102.802C60.9898 102.536 62.3165 102.277 63.6512 102.025C64.4164 101.876 65.1865 101.732 65.9565 101.594C66.0335 101.578 66.1105 101.562 66.1875 101.551C67.5158 101.306 68.8473 101.07 70.182 100.843C71.0868 100.689 71.9964 100.534 72.906 100.391C73.6809 100.263 74.4557 100.14 75.2305 100.018C82.5747 98.8786 89.9911 97.9683 97.2775 97.3295C97.9079 97.2709 98.5384 97.2177 99.1688 97.1644C101.614 96.9621 104.078 96.7811 106.547 96.6321C109.598 96.4511 112.659 96.3073 115.705 96.2062C123.021 95.956 130.437 95.956 137.747 96.2062C140.799 96.3073 143.859 96.4511 146.911 96.6321C149.38 96.7811 151.844 96.9622 154.289 97.1644C154.919 97.2177 155.55 97.2709 156.18 97.3295C163.462 97.9683 170.878 98.8733 178.232 100.018C178.583 100.071 178.93 100.13 179.281 100.183C179.406 100.204 179.526 100.22 179.651 100.241C180.186 100.327 180.72 100.417 181.254 100.502C183.261 100.832 185.266 101.182 187.27 101.551C187.785 101.642 188.3 101.737 188.81 101.833C189.912 102.041 191.009 102.252 192.102 102.467C192.737 102.594 193.368 102.722 193.998 102.85C194.398 102.93 194.802 103.01 195.201 103.095C195.687 103.196 196.173 103.297 196.655 103.398C197.449 103.563 198.243 103.734 199.042 103.909C199.542 104.021 200.048 104.128 200.553 104.245C205.938 105.443 211.377 106.789 216.791 108.259C217.354 108.413 217.917 108.568 218.48 108.722C218.557 108.743 218.629 108.765 218.706 108.786C219.289 108.946 219.871 109.111 220.453 109.276C221.286 109.51 222.12 109.749 222.956 109.994C223.664 110.197 224.371 110.404 225.078 110.617C227.263 111.261 229.448 111.932 231.619 112.619C232.942 113.039 234.259 113.465 235.57 113.896H235.58C236.102 114.068 236.637 114.189 237.178 114.258C237.561 114.312 237.946 114.338 238.333 114.338C240.913 114.332 243.385 113.193 245.206 111.172C247.027 109.151 248.048 106.412 248.045 103.558V84.8563C248.04 82.7743 247.492 80.738 246.467 78.992C245.441 77.246 243.982 75.8644 242.265 75.013Z" fill="#FDA902"/>
<path d="M34.2986 65.0845C34.1099 64.9398 33.893 64.8465 33.6655 64.8123C33.438 64.7781 33.2064 64.8039 32.9896 64.8875C32.9763 64.8886 32.9632 64.8922 32.9511 64.8982C31.4928 65.4998 30.0266 66.1173 28.5523 66.7508C28.0181 66.985 27.4791 67.2193 26.94 67.4535C26.4203 67.6824 25.8957 67.9113 25.3759 68.1456C24.9187 68.3479 24.4663 68.5502 24.0091 68.7578C23.6433 68.9228 23.2824 69.0878 22.9166 69.2529C21.6653 69.8278 20.4156 70.4099 19.1675 70.999C18.4119 71.361 17.6515 71.723 16.896 72.0903C16.6327 72.2172 16.4086 72.4264 16.2513 72.6921C16.094 72.9579 16.0103 73.2686 16.0104 73.5863V112.326C16.0095 112.582 16.063 112.834 16.1667 113.062C16.2704 113.291 16.4213 113.489 16.6072 113.641C16.7252 113.737 16.8548 113.814 16.9922 113.87C17.2825 113.983 17.5978 113.99 17.8922 113.891L20.0434 113.188C20.645 112.997 21.2466 112.805 21.8482 112.613C22.5076 112.406 23.1669 112.198 23.8311 111.991C25.3374 111.527 26.8534 111.064 28.3694 110.617C29.0769 110.404 29.7844 110.197 30.4918 109.994C31.6036 109.669 32.7153 109.355 33.827 109.041C34.1015 108.964 34.3502 108.801 34.5441 108.573L34.5489 108.568C34.796 108.268 34.9333 107.877 34.9339 107.471V66.4261C34.9341 66.1623 34.8764 65.9024 34.7657 65.6687C34.6551 65.435 34.4948 65.2346 34.2986 65.0845Z" fill="#FD2D02"/>
<path d="M74.8888 52.1908C74.7245 52.041 74.5323 51.9333 74.326 51.8753C74.1197 51.8173 73.9043 51.8105 73.6953 51.8554C73.6856 51.8554 73.676 51.8608 73.6664 51.8608C73.5942 51.8767 73.5172 51.8927 73.445 51.914C72.9445 52.0258 72.4392 52.1429 71.9386 52.2654C71.3852 52.3931 70.8365 52.5262 70.2831 52.6593C69.8211 52.7711 69.359 52.8882 68.897 53.0053C67.8094 53.2768 66.7169 53.5537 65.6292 53.8465C63.4106 54.4321 61.1983 55.0514 58.9925 55.7044C58.5305 55.8375 58.0637 55.9759 57.6016 56.1143C57.5609 56.1261 57.5207 56.1403 57.4813 56.1569C57.4776 56.1573 57.4742 56.1592 57.4717 56.1622C57.191 56.2796 56.9491 56.4886 56.778 56.7614C56.607 57.0342 56.5149 57.3581 56.514 57.6901V101.498C56.5135 101.737 56.5607 101.973 56.6522 102.189C56.7437 102.405 56.8773 102.596 57.0434 102.749C57.1573 102.854 57.2856 102.939 57.4236 102.999C57.6008 103.079 57.7903 103.121 57.9818 103.121C58.069 103.121 58.1559 103.112 58.2417 103.095H58.2562C58.7278 102.994 59.1995 102.898 59.6711 102.802C60.9898 102.536 62.3165 102.277 63.6512 102.025C64.4164 101.876 65.1864 101.732 65.9565 101.594C66.0335 101.578 66.1105 101.562 66.1875 101.551C67.5158 101.306 68.8473 101.07 70.182 100.843C71.0868 100.689 71.9964 100.534 72.906 100.391C73.3295 100.316 73.753 100.252 74.1765 100.183C74.457 100.14 74.7198 100.007 74.9321 99.7996C75.0903 99.647 75.2171 99.4589 75.3043 99.2477C75.3914 99.0366 75.4368 98.8073 75.4375 98.5752V53.4578C75.4376 53.2147 75.3884 52.9746 75.2935 52.7553C75.1985 52.536 75.0602 52.3431 74.8888 52.1908Z" fill="#FD2D02"/>
<path d="M115.484 46.6436C115.211 46.3567 114.85 46.195 114.473 46.1911H114.401C114.127 46.2071 113.848 46.2178 113.573 46.2337C113.467 46.2391 113.357 46.2444 113.251 46.2497C112.524 46.2923 111.797 46.3349 111.071 46.3828C110.296 46.4307 109.526 46.4839 108.756 46.5425C108.27 46.5798 107.788 46.617 107.307 46.6543C106.989 46.6809 106.672 46.7075 106.349 46.7342C104.338 46.9045 102.326 47.1015 100.329 47.3251C99.6598 47.3996 98.9956 47.4741 98.3315 47.554C97.9698 47.5971 97.6353 47.7869 97.3927 48.0868C97.15 48.3866 97.0164 48.7753 97.0176 49.1777V95.594C97.0172 95.8173 97.059 96.0382 97.1402 96.2426C97.2214 96.447 97.3403 96.6304 97.4893 96.7811C97.5789 96.8749 97.6792 96.9554 97.7876 97.0207C98.0035 97.1498 98.2449 97.2175 98.4903 97.2176C98.524 97.2176 98.5625 97.2123 98.601 97.2123C98.7887 97.1964 98.9812 97.1804 99.1689 97.1644C101.614 96.9621 104.078 96.7811 106.547 96.6321C109.208 96.467 111.87 96.3393 114.517 96.2434C114.803 96.2386 115.081 96.1384 115.315 95.956C115.51 95.8057 115.668 95.6057 115.777 95.373C115.886 95.1403 115.942 94.8818 115.941 94.6197V47.8255C115.942 47.6044 115.902 47.3854 115.823 47.1822C115.745 46.9789 115.629 46.7956 115.484 46.6436Z" fill="#FD2D02"/>
<path d="M155.145 47.7829H155.136C155.073 47.7723 155.006 47.7669 154.943 47.7616C154.337 47.6818 153.73 47.6072 153.124 47.538C152.325 47.4422 151.531 47.3517 150.732 47.2665C148.841 47.0589 146.952 46.8779 145.067 46.7235C144.591 46.6809 144.119 46.6437 143.648 46.6117C143.104 46.5638 142.56 46.5265 142.021 46.4893C141.463 46.4467 140.904 46.4094 140.346 46.3775C140.134 46.3615 139.928 46.3509 139.721 46.3402C139.499 46.3242 139.283 46.3083 139.066 46.2976C139.023 46.2932 138.979 46.2914 138.936 46.2923C138.578 46.3041 138.236 46.4636 137.978 46.7395C137.832 46.8918 137.715 47.0758 137.636 47.28C137.556 47.4842 137.516 47.7043 137.516 47.9266V94.6198C137.515 94.8824 137.572 95.1415 137.682 95.3743C137.792 95.6072 137.951 95.8069 138.147 95.956C138.379 96.1384 138.656 96.2386 138.941 96.2435C141.588 96.3393 144.249 96.467 146.911 96.6321C149.38 96.7811 151.844 96.9622 154.289 97.1644C154.476 97.1804 154.669 97.1964 154.857 97.2123C154.895 97.2123 154.929 97.2177 154.967 97.2177C155.213 97.2175 155.454 97.1498 155.67 97.0207C155.778 96.9554 155.879 96.8749 155.968 96.7811C156.116 96.6297 156.235 96.4461 156.316 96.2419C156.397 96.0376 156.439 95.8171 156.44 95.594V49.4013C156.439 49.0036 156.307 48.62 156.068 48.3221C155.83 48.0243 155.502 47.8326 155.145 47.7829Z" fill="#FD2D02"/>
<path d="M195.971 56.5508C195.934 56.5343 195.895 56.52 195.856 56.5082C195.437 56.3805 195.018 56.258 194.6 56.1356C193.791 55.896 192.979 55.6618 192.164 55.4329C191.399 55.2093 190.629 54.9963 189.859 54.7834C189.181 54.5971 188.502 54.4107 187.819 54.2297C187.15 54.0487 186.481 53.8731 185.807 53.7027C183.8 53.181 181.796 52.6877 179.796 52.2228C179.782 52.2184 179.767 52.2166 179.753 52.2174C179.545 52.1745 179.332 52.1823 179.127 52.2402C178.922 52.2981 178.732 52.4048 178.569 52.5528C178.397 52.7051 178.259 52.898 178.164 53.1173C178.069 53.3366 178.02 53.5767 178.02 53.8198V98.5752C178.02 98.8078 178.066 99.0377 178.154 99.249C178.242 99.4603 178.37 99.6481 178.53 99.7996C178.741 100.007 179.002 100.14 179.281 100.183C179.406 100.204 179.526 100.22 179.651 100.241C180.186 100.327 180.72 100.412 181.254 100.502C183.261 100.832 185.266 101.182 187.27 101.551C187.785 101.642 188.3 101.737 188.81 101.833C189.912 102.041 191.009 102.252 192.102 102.467C192.737 102.594 193.368 102.722 193.998 102.85C194.398 102.93 194.802 103.01 195.201 103.095C195.292 103.112 195.384 103.121 195.476 103.121C195.667 103.122 195.857 103.08 196.034 102.999C196.172 102.94 196.301 102.855 196.414 102.749C196.58 102.596 196.714 102.405 196.805 102.189C196.897 101.973 196.944 101.737 196.943 101.498V58.084C196.943 57.7491 196.849 57.4224 196.676 57.1482C196.502 56.874 196.256 56.6654 195.971 56.5508Z" fill="#FD2D02"/>
<path d="M236.576 72.2607L236.547 72.2447C235.108 71.5633 233.666 70.8961 232.22 70.2431C231.21 69.7852 230.204 69.3327 229.193 68.8909C228.799 68.7099 228.404 68.5395 228.005 68.3692C227.364 68.087 226.72 67.8102 226.079 67.5334C225.55 67.3045 225.016 67.0809 224.486 66.8573C223.875 66.5964 223.264 66.3462 222.658 66.0907C221.936 65.7926 221.215 65.498 220.497 65.207C220.489 65.2027 220.481 65.2008 220.473 65.2016C220.255 65.1147 220.02 65.0877 219.791 65.123C219.561 65.1582 219.343 65.2546 219.154 65.4039C218.959 65.554 218.8 65.7539 218.691 65.9865C218.581 66.2192 218.524 66.4777 218.524 66.7402V107.471C218.524 107.809 218.62 108.138 218.798 108.413C218.832 108.467 218.869 108.518 218.909 108.568L218.913 108.573C219.107 108.802 219.356 108.965 219.63 109.041C219.905 109.116 220.179 109.196 220.453 109.276C221.286 109.51 222.12 109.749 222.956 109.994C223.663 110.197 224.371 110.404 225.078 110.617C227.263 111.261 229.448 111.932 231.619 112.619C232.942 113.039 234.259 113.465 235.57 113.896H235.58C235.713 113.938 235.85 113.96 235.989 113.96C236.151 113.96 236.312 113.929 236.465 113.87C236.603 113.816 236.733 113.739 236.85 113.641C237.035 113.488 237.184 113.289 237.287 113.061C237.39 112.833 237.443 112.581 237.442 112.326V73.746C237.443 73.4323 237.361 73.1252 237.208 72.8617C237.054 72.5981 236.835 72.3894 236.576 72.2607Z" fill="#FD2D02"/>
<path d="M20.0806 113.22C26.3478 117.891 32.8916 122.092 39.4863 126.167C46.5412 130.526 53.6697 134.737 60.7258 139.094C67.8245 143.477 74.8603 148.002 81.6472 152.958C88.2468 157.682 94.4865 162.996 100.304 168.844C105.814 174.485 110.804 180.79 114.727 187.889C115.195 188.736 115.647 189.592 116.083 190.459C116.536 191.357 117.784 190.552 117.33 189.653C113.594 182.416 108.942 175.806 103.516 170.024C97.8422 163.981 91.6991 158.5 85.1577 153.646C78.4152 148.541 71.3863 143.915 64.2763 139.468C57.1871 135.035 50.006 130.785 42.8796 126.425C36.1713 122.322 29.4965 118.128 23.0708 113.499C22.3131 112.953 21.5592 112.4 20.8093 111.841C20.0367 111.265 19.3133 112.648 20.0806 113.22Z" fill="#3F3D56"/>
<path d="M44.4401 94.4787C47.4428 101.964 51.132 109.088 55.4497 115.74C59.8685 122.552 64.5949 129.114 69.611 135.399C74.6286 141.793 79.7965 148.04 84.8504 154.399C89.8469 160.685 94.7458 167.082 99.2195 173.838C103.659 180.414 107.515 187.448 110.733 194.843C111.122 195.759 111.499 196.683 111.862 197.612C112.231 198.553 113.475 197.741 113.109 196.806C110.106 189.321 106.417 182.197 102.099 175.545C97.6807 168.733 92.9543 162.171 87.9382 155.886C82.9206 149.492 77.7527 143.245 72.6988 136.886C67.7023 130.6 62.8034 124.203 58.3297 117.447C53.8902 110.871 50.0345 103.837 46.8162 96.4424C46.4267 95.5257 46.0502 94.6024 45.6868 93.6726C45.3183 92.732 44.0741 93.5443 44.4401 94.4787Z" fill="#3F3D56"/>
<path d="M220.93 104.002C215.424 109.815 209.592 115.238 203.469 120.239C197.117 125.529 190.592 130.557 184.099 135.632C177.616 140.699 171.157 145.81 164.933 151.261C158.926 156.415 153.286 162.07 148.061 168.177C143.185 173.993 138.815 180.398 135.539 187.472C135.145 188.323 134.767 189.182 134.406 190.05C134.019 190.977 135.264 191.79 135.653 190.857C138.701 183.746 142.67 177.165 147.434 171.32C152.472 165.14 157.964 159.432 163.853 154.253C169.971 148.759 176.361 143.649 182.787 138.608C189.285 133.511 195.834 128.49 202.234 123.242C208.416 118.268 214.341 112.915 219.981 107.206C220.644 106.523 221.301 105.831 221.951 105.132C222.618 104.414 221.597 103.285 220.93 104.002Z" fill="#3F3D56"/>
<path d="M206.049 89.3011C203.047 96.7861 199.357 103.91 195.04 110.562C190.618 117.372 185.886 123.929 180.862 130.207C175.839 136.596 170.671 142.843 165.621 149.205C160.628 155.495 155.744 161.905 151.27 168.661C146.83 175.236 142.975 182.27 139.756 189.665C139.367 190.582 138.99 191.505 138.627 192.435C138.261 193.368 139.505 194.182 139.874 193.241C142.876 185.756 146.566 178.632 150.883 171.98C155.305 165.17 160.037 158.613 165.061 152.335C170.083 145.946 175.252 139.699 180.302 133.337C185.295 127.047 190.179 120.637 194.653 113.882C199.093 107.306 202.948 100.272 206.167 92.877C206.556 91.9603 206.932 91.037 207.296 90.1072C207.662 89.1738 206.418 88.3595 206.049 89.3011Z" fill="#3F3D56"/>
<path d="M99.4634 292.073L100.373 295.565L112.984 293.345L111.64 288.19L99.4634 292.073Z" fill="#FFB6B6"/>
<path d="M96.1382 293L98.9364 303.739L99.0591 303.699C100.061 303.38 100.908 302.633 101.412 301.623C101.916 300.614 102.038 299.424 101.749 298.315L102.583 295.924L100.284 292.693L100.04 291.756L96.1382 293Z" fill="#2F2E41"/>
<path d="M153.607 309.226L156.813 308.429L155.56 294.373L150.828 295.549L153.607 309.226Z" fill="#FFB6B6"/>
<path d="M153.311 313.208L163.168 310.758L163.14 310.62C162.912 309.494 162.288 308.515 161.407 307.898C160.526 307.281 159.459 307.077 158.441 307.329L156.334 306.266L153.281 308.612L152.421 308.826L153.311 313.208Z" fill="#2F2E41"/>
<path d="M143.795 233.943L158.311 299.827L151.211 300.523L143.343 278.474L131.198 252.522L132.296 282.143L109.701 296.76L104.391 288.714L122.454 277.968L114.564 238.766L116.664 233.943L143.795 233.943Z" fill="#2F2E41"/>
<path d="M114.712 239.712C112.359 236.068 116.713 230.068 117.246 228.799C116.612 228.571 116.07 228.108 115.71 227.487C115.35 226.867 115.196 226.127 115.274 225.395L115.504 223.232L115.744 221.109L114.026 219.209L114.021 219.161L113.032 209.59L111.594 203.233C111.053 200.83 111.099 198.311 111.728 195.934C112.358 193.557 113.547 191.408 115.176 189.708L118.499 189.124L122.538 184.819H129.051L131.285 187.18C135.454 187.988 136.17 187.724 139.751 192.478L138.124 207.257L137.718 209.29L137.719 212.047L138.751 213.316C139.123 213.773 139.393 214.32 139.54 214.913C139.687 215.505 139.707 216.128 139.598 216.731L139.462 217.482C140.526 217.986 141.542 226.953 141.785 228.206L142.147 230.077C142.457 230.529 144.504 233.548 144.504 234.374C144.504 234.497 144.421 234.617 144.244 234.75C142.849 235.795 130.638 238.561 127.225 237.051C123.591 235.443 114.712 239.712 114.712 239.712Z" fill="#E6E6E6"/>
<path d="M101.661 195.862L104.524 199.736C105.602 201.194 106.93 202.402 108.432 203.29C109.933 204.179 111.578 204.73 113.273 204.913C114.323 205.021 115.38 204.803 116.324 204.282C117.268 203.762 118.062 202.959 118.615 201.966C119.357 200.614 119.607 199 119.315 197.452C119.022 195.904 118.209 194.536 117.04 193.626C113.492 190.867 111.557 186.593 108.768 187.979L108.168 186.349L100.303 179.32L93.8581 185.438L101.661 195.862Z" fill="#E6E6E6"/>
<path d="M157.098 183.04L150.862 176.662L145.999 180.088L145.345 181.692C142.604 180.193 137.295 187.66 133.658 190.271C132.459 191.133 131.6 192.466 131.256 194.001C130.912 195.537 131.108 197.159 131.804 198.541C132.324 199.556 133.09 200.39 134.016 200.95C134.941 201.509 135.99 201.77 137.043 201.705C138.743 201.592 140.406 201.108 141.936 200.282C143.466 199.456 144.834 198.303 145.96 196.89L148.951 193.136L157.098 183.04Z" fill="#E6E6E6"/>
<path d="M125.355 182.74C129.35 182.74 132.589 179.157 132.589 174.738C132.589 170.319 129.35 166.737 125.355 166.737C121.36 166.737 118.122 170.319 118.122 174.738C118.122 179.157 121.36 182.74 125.355 182.74Z" fill="#FFB6B6"/>
<path d="M120.106 180.378C120.042 180.317 119.983 180.251 119.921 180.188C119.919 180.195 119.919 180.202 119.916 180.208L120.106 180.378Z" fill="#2F2E41"/>
<path d="M132.145 171.737C132.107 171.71 132.073 171.684 132.035 171.663C131.559 171.249 130.97 171.029 130.365 171.04C129.787 171.12 129.311 171.577 128.757 171.758C127.569 172.142 126.37 171.205 125.138 171.109H125.109C124.717 171.082 124.323 171.14 123.951 171.281C123.579 171.422 123.236 171.643 122.941 171.93C122.646 172.218 122.405 172.567 122.232 172.958C122.059 173.349 121.958 173.773 121.933 174.207C121.909 174.649 121.962 175.091 121.914 175.527C121.9 175.749 121.838 175.963 121.733 176.152C121.627 176.34 121.481 176.497 121.307 176.608C120.763 176.88 120.032 176.475 119.57 176.896C119.161 177.274 119.31 178.008 119.555 178.535C119.842 178.979 119.983 179.518 119.955 180.063C119.946 180.106 119.935 180.149 119.921 180.191C118.807 179.044 117.923 177.651 117.326 176.102C116.73 174.553 116.433 172.883 116.456 171.199C116.437 170.457 116.575 169.721 116.86 169.049C117.004 168.714 117.22 168.423 117.489 168.203C117.759 167.983 118.074 167.84 118.405 167.787C118.973 167.734 119.56 168.016 120.099 167.814C120.763 167.569 121.043 166.722 121.389 166.041C121.816 165.228 122.438 164.562 123.185 164.114C123.932 163.666 124.776 163.454 125.624 163.502C126.235 163.568 126.838 163.702 127.424 163.901L128.57 164.247C129.006 164.361 129.431 164.527 129.835 164.742C130.427 165.118 130.924 165.65 131.284 166.291C131.589 166.807 131.83 167.365 132.001 167.952C131.367 167.988 130.731 167.964 130.1 167.878C130.822 168.373 131.549 168.868 132.271 169.363C132.356 170.156 132.314 170.96 132.145 171.737Z" fill="#2F2E41"/>
<path d="M246.225 52.6311C259.364 52.6311 270.015 40.8492 270.015 26.3156C270.015 11.7819 259.364 0 246.225 0C233.086 0 222.435 11.7819 222.435 26.3156C222.435 40.8492 233.086 52.6311 246.225 52.6311Z" fill="#FDA902"/>
<path d="M299.473 13.8557C298.097 8.75574 294.208 5.42851 289.511 4.69918C289.463 4.69386 289.41 4.70448 289.362 4.69918C289.295 4.67582 289.228 4.65803 289.159 4.64594C282.505 3.75057 275.773 5.37164 270.058 9.24552C268.75 10.1496 267.383 10.9433 265.967 11.6198C261.428 13.7365 256.573 14.8991 251.649 15.0482C251.611 15.0482 251.572 15.0535 251.534 15.0535C249.122 15.2308 246.819 16.226 244.937 17.9035C243.056 19.5811 241.687 21.8595 241.018 24.4283C240.947 24.7424 240.969 25.0734 241.079 25.373C241.19 25.6727 241.385 25.9254 241.634 26.0946C242.352 26.7682 243.203 27.2475 244.117 27.4947C246.095 27.9578 248.078 28.382 250.066 28.767C253.95 29.5176 257.853 30.1245 261.775 30.5877C264.374 30.8965 266.978 31.1378 269.586 31.3117C274.967 31.6843 280.371 31.7748 285.762 31.5885C288.428 31.498 290.998 31.4022 293.443 30.0979C295.22 29.1278 296.738 27.6617 297.846 25.8444C298.892 24.0984 299.579 22.1205 299.86 20.0494C300.141 17.9783 300.009 15.8643 299.473 13.8557Z" fill="#F2F2F2"/>
<path d="M206.27 209.897C205.279 206.223 202.478 203.822 199.09 203.295C199.051 203.29 199.018 203.301 198.979 203.295C198.932 203.28 198.884 203.267 198.835 203.258C194.037 202.61 189.181 203.779 185.061 206.575C181.09 209.316 176.465 210.557 171.787 210.759C171.76 210.758 171.733 210.76 171.706 210.764C169.968 210.892 168.308 211.61 166.952 212.818C165.595 214.027 164.609 215.669 164.126 217.52C164.074 217.746 164.089 217.985 164.169 218.202C164.248 218.418 164.388 218.601 164.568 218.723C165.085 219.21 165.699 219.554 166.359 219.729C167.783 220.065 169.218 220.368 170.652 220.65C173.448 221.188 176.268 221.624 179.093 221.96C184.835 222.643 190.613 222.885 196.385 222.684C198.305 222.62 200.158 222.551 201.92 221.608C203.203 220.909 204.299 219.853 205.101 218.542C205.854 217.282 206.349 215.856 206.551 214.362C206.753 212.869 206.657 211.345 206.27 209.897Z" fill="#F2F2F2"/>
<path d="M54.1894 166.243C53.198 162.57 50.397 160.169 47.0089 159.642C46.9704 159.637 46.9367 159.647 46.8982 159.642C46.8508 159.626 46.8026 159.614 46.7538 159.605C41.9556 158.956 37.1003 160.125 32.9799 162.921C29.0095 165.663 24.3845 166.903 19.7065 167.106C19.6792 167.105 19.6518 167.107 19.6247 167.111C17.8868 167.239 16.2269 167.956 14.8706 169.165C13.5143 170.374 12.5276 172.015 12.0447 173.867C11.9929 174.093 12.008 174.332 12.0876 174.548C12.1673 174.765 12.3074 174.948 12.4875 175.07C13.0043 175.556 13.6177 175.901 14.2778 176.076C15.7024 176.411 17.1365 176.715 18.5707 176.997C21.3669 177.534 24.1872 177.971 27.0122 178.306C32.7541 178.989 38.532 179.231 44.3042 179.03C46.2244 178.967 48.0773 178.897 49.8388 177.955C51.1221 177.256 52.2185 176.199 53.02 174.889C53.7729 173.629 54.2678 172.203 54.4698 170.709C54.6718 169.216 54.5761 167.691 54.1894 166.243Z" fill="#F2F2F2"/>
<path d="M94.0997 393.947C95.7264 395.922 97.3049 397.94 98.8354 400C76.0803 395.497 54.3171 386.208 34.7255 372.637C34.3164 372.355 33.9122 372.072 33.5079 371.785C22.3911 363.953 12.0735 354.812 2.73557 344.523C4.37188 342.825 5.38254 341.813 5.38254 341.813C28.2188 314.684 30.7791 305.134 53.6153 278.005C61.2097 312.044 93.1419 335.691 109.89 365.455C105.006 369.225 99.6641 372.209 94.0227 374.319C93.9842 374.367 93.9457 374.42 93.9072 374.468C91.7814 377.18 90.6272 380.659 90.6627 384.248C90.6981 387.837 91.9208 391.287 94.0997 393.947Z" fill="#F2F2F2"/>
<path d="M290.929 298.048C277.253 325.785 257.892 349.591 234.399 367.558C233.899 367.941 233.398 368.325 232.893 368.703C216.252 381.165 197.852 390.475 178.447 396.252C177.515 395.459 176.469 394.845 175.352 394.437V394.426C176.604 391.839 177.855 389.252 179.106 386.664C174.784 391.541 167.248 392.377 162.137 388.554C162.977 386.455 164.177 384.555 165.669 382.959C164.418 383.593 162.474 382.677 161.935 381.08C161.256 379.084 162.026 376.874 162.835 374.937C171.752 353.6 200.97 319.055 201.427 318.517C201.115 318.73 187.774 327.999 180.035 327.312C179.64 324.693 169.375 321.493 168.23 320.162C172.893 308.562 194.521 286.98 194.521 286.98C217.357 259.851 219.918 250.301 242.754 223.172C249.251 252.292 273.555 273.805 290.929 298.048Z" fill="#F2F2F2"/>
<g opacity="0.2">
<path d="M0 105.434C0.14208 105.226 0.290984 105.025 0.435798 104.82L0.44367 104.739L0 105.434Z" fill="black"/>
<path d="M247.066 107.629C246.268 109.729 244.875 111.485 243.096 112.633C241.318 113.781 239.25 114.26 237.205 113.996C236.674 113.925 236.149 113.806 235.636 113.639C230.01 111.787 224.386 110.083 218.763 108.529C211.409 106.484 204.055 104.687 196.701 103.136C190.556 101.837 184.41 100.71 178.264 99.7555C170.905 98.6109 163.55 97.713 156.198 97.0618C150.052 96.5134 143.905 96.139 137.756 95.9385C130.402 95.6883 123.05 95.6883 115.699 95.9385C109.553 96.1408 103.406 96.5152 97.2568 97.0618C89.903 97.7112 82.5492 98.6092 75.1954 99.7555C69.0496 100.714 62.9022 101.841 56.7532 103.136C49.3994 104.685 42.0456 106.483 34.6918 108.529C29.0658 110.089 23.443 111.792 17.8234 113.639C17.3102 113.806 16.7854 113.925 16.2544 113.996C14.9227 114.168 13.573 114.027 12.2943 113.581C11.0155 113.135 9.83655 112.395 8.83503 111.409C7.8335 110.422 7.03208 109.213 6.48348 107.859C5.93488 106.506 5.65153 105.04 5.65207 103.556V98.6375C16.5047 87.7827 31.8572 82.752 46.661 81.0378C64.2658 78.9988 82.1546 80.7396 99.6631 77.8489C113.938 75.4906 128.121 70.0552 142.453 71.9451C154.942 73.5847 166.324 80.6651 178.639 83.4972C194.088 87.0481 210.398 83.7847 225.707 88.0063C231.709 89.6566 237.59 92.558 241.878 97.4823C244.363 100.319 246.149 103.812 247.066 107.629Z" fill="black"/>
</g>
<path d="M126.153 218.644C131.26 218.644 135.399 214.065 135.399 208.416C135.399 202.768 131.26 198.188 126.153 198.188C121.046 198.188 116.907 202.768 116.907 208.416C116.907 214.065 121.046 218.644 126.153 218.644Z" fill="#FDA902"/>
<path d="M124.892 213.74C124.732 213.74 124.574 213.699 124.432 213.619C124.289 213.54 124.165 213.426 124.069 213.284L121.546 209.564C121.465 209.444 121.406 209.308 121.372 209.163C121.338 209.019 121.33 208.868 121.349 208.72C121.368 208.572 121.414 208.429 121.483 208.3C121.551 208.171 121.642 208.059 121.751 207.969C121.859 207.879 121.982 207.814 122.113 207.777C122.244 207.74 122.38 207.732 122.514 207.753C122.648 207.775 122.777 207.825 122.893 207.901C123.01 207.978 123.111 208.079 123.192 208.199L124.842 210.633L129.081 203.6C129.232 203.349 129.468 203.174 129.735 203.115C130.003 203.056 130.28 203.117 130.507 203.284C130.734 203.452 130.892 203.712 130.945 204.008C130.999 204.304 130.944 204.611 130.793 204.862L125.747 213.233C125.656 213.384 125.533 213.509 125.39 213.597C125.246 213.686 125.085 213.734 124.92 213.739L124.892 213.74Z" fill="white"/>
<path d="M239.842 268.119C239.404 276.078 238.968 284.038 238.533 292.001C237.763 306.065 236.993 320.132 236.223 334.201C235.617 345.322 235.009 356.441 234.399 367.558C233.899 367.941 233.398 368.325 232.893 368.703C233.186 363.395 233.477 358.087 233.764 352.78C234.534 338.71 235.304 324.643 236.074 310.58C236.849 296.424 237.624 282.271 238.399 268.119C238.451 267.092 239.895 267.092 239.842 268.119Z" fill="white"/>
<path d="M192.463 307.329L217.907 283.598L225.046 276.94C225.758 276.276 224.732 275.152 224.025 275.81L198.581 299.541L191.442 306.199C190.731 306.863 191.757 307.987 192.463 307.329Z" fill="white"/>
<path d="M195.712 351.963L214.266 333.855C214.964 333.173 213.94 332.047 213.245 332.725L194.691 350.834C193.993 351.515 195.018 352.641 195.712 351.963Z" fill="white"/>
<path d="M17.1615 343.978L35.715 325.869C36.4131 325.188 35.3888 324.062 34.6941 324.74L16.1406 342.848C15.4425 343.53 16.4668 344.656 17.1615 343.978Z" fill="white"/>
<path d="M256.316 291.763C258.751 291.649 261.173 292.229 263.347 293.449C265.521 294.668 267.375 296.486 268.731 298.727C269.238 299.583 270.489 298.784 269.978 297.921C268.493 295.441 266.456 293.425 264.064 292.067C261.671 290.709 259.003 290.054 256.316 290.166C255.391 290.214 255.385 291.812 256.316 291.763Z" fill="white"/>
<path d="M54.129 321.721C66.4749 328.221 76.3626 339.314 82.0633 353.061C82.4503 353.994 83.6951 353.183 83.3099 352.255C78.7769 341.426 71.6889 332.148 62.7917 325.399C60.2712 323.485 57.6183 321.794 54.8577 320.342C54.023 319.903 53.2895 321.279 54.129 321.721Z" fill="white"/>
<path d="M53.2015 310.617C52.2101 316.713 51.0005 322.758 49.5727 328.755C47.0498 339.344 43.8559 349.724 40.0147 359.818C38.3687 364.151 36.6057 368.424 34.7255 372.637C34.3165 372.355 33.9122 372.073 33.5079 371.785C37.8099 362.114 41.4989 352.125 44.5482 341.888C47.6377 331.526 50.0628 320.936 51.8058 310.197C51.9694 309.185 53.3651 309.616 53.2015 310.617Z" fill="white"/>
<path d="M66.7301 238.146C70.6012 238.146 73.7395 234.675 73.7395 230.392C73.7395 226.11 70.6012 222.639 66.7301 222.639C62.8589 222.639 59.7207 226.11 59.7207 230.392C59.7207 234.675 62.8589 238.146 66.7301 238.146Z" fill="#E6E6E6"/>
<path d="M65.7738 234.428C65.6528 234.428 65.5334 234.397 65.4252 234.337C65.3169 234.277 65.2227 234.19 65.1501 234.083L63.2379 231.262C63.1138 231.079 63.0605 230.849 63.0898 230.623C63.119 230.396 63.2284 230.192 63.3938 230.055C63.5593 229.918 63.7672 229.859 63.9719 229.891C64.1766 229.923 64.3613 230.044 64.4854 230.227L65.7365 232.072L68.9497 226.741C69.0062 226.646 69.0792 226.565 69.1643 226.501C69.2495 226.438 69.3451 226.393 69.4458 226.371C69.5464 226.348 69.6501 226.348 69.7509 226.37C69.8517 226.392 69.9475 226.435 70.033 226.498C70.1184 226.561 70.1918 226.643 70.2488 226.737C70.3059 226.831 70.3455 226.937 70.3654 227.049C70.3853 227.16 70.3851 227.275 70.3648 227.386C70.3445 227.498 70.3045 227.604 70.2472 227.698L66.4226 234.044C66.3535 234.158 66.2604 234.253 66.1513 234.32C66.0422 234.387 65.9202 234.424 65.7955 234.428L65.7738 234.428Z" fill="white"/>
<path d="M80.2289 238.146C84.1001 238.146 87.2383 234.675 87.2383 230.392C87.2383 226.11 84.1001 222.639 80.2289 222.639C76.3577 222.639 73.2195 226.11 73.2195 230.392C73.2195 234.675 76.3577 238.146 80.2289 238.146Z" fill="#E6E6E6"/>
<path d="M79.2727 234.428C79.1516 234.428 79.0322 234.397 78.924 234.337C78.8157 234.277 78.7216 234.19 78.649 234.083L76.7367 231.262C76.6126 231.079 76.5594 230.849 76.5886 230.623C76.6179 230.396 76.7272 230.192 76.8927 230.055C77.0581 229.918 77.266 229.859 77.4707 229.891C77.6755 229.923 77.8602 230.044 77.9842 230.227L79.2353 232.072L82.4485 226.741C82.5051 226.646 82.578 226.565 82.6631 226.501C82.7483 226.438 82.8439 226.393 82.9446 226.371C83.0453 226.348 83.1489 226.348 83.2497 226.37C83.3505 226.392 83.4464 226.435 83.5318 226.498C83.6173 226.561 83.6906 226.643 83.7477 226.737C83.8047 226.831 83.8443 226.937 83.8642 227.049C83.8841 227.16 83.884 227.275 83.8637 227.386C83.8434 227.498 83.8034 227.604 83.746 227.698L79.9215 234.044C79.8523 234.158 79.7592 234.253 79.6501 234.32C79.541 234.387 79.419 234.424 79.2944 234.428L79.2727 234.428Z" fill="white"/>
<path d="M73.297 225.636C77.1682 225.636 80.3064 222.164 80.3064 217.882C80.3064 213.6 77.1682 210.129 73.297 210.129C69.4259 210.129 66.2877 213.6 66.2877 217.882C66.2877 222.164 69.4259 225.636 73.297 225.636Z" fill="#E6E6E6"/>
<path d="M72.3408 221.917C72.2198 221.917 72.1004 221.886 71.9922 221.826C71.8839 221.766 71.7897 221.679 71.7171 221.572L69.8049 218.752C69.6808 218.569 69.6275 218.339 69.6568 218.112C69.686 217.886 69.7954 217.682 69.9609 217.544C70.1263 217.407 70.3342 217.348 70.5389 217.381C70.7436 217.413 70.9283 217.534 71.0524 217.717L72.3035 219.562L75.5167 214.231C75.6318 214.042 75.81 213.911 76.0123 213.866C76.2145 213.822 76.4244 213.868 76.5959 213.995C76.7674 214.121 76.8867 214.318 76.9276 214.541C76.9685 214.765 76.9277 214.997 76.8142 215.187L72.9897 221.533C72.9205 221.648 72.8274 221.743 72.7183 221.81C72.6092 221.876 72.4872 221.913 72.3625 221.917L72.3408 221.917Z" fill="white"/>
<path d="M93.5656 218.413L92.5305 218.527L87.4228 233.459H59.6955L54.5878 218.527L53.5528 218.413C53.2223 218.376 52.8887 218.417 52.5732 218.531C52.2578 218.646 51.9677 218.833 51.7214 219.079C51.4752 219.326 51.2784 219.627 51.1438 219.962C51.0091 220.298 50.9395 220.661 50.9395 221.029V254.875C50.9395 256.196 51.1748 257.505 51.6319 258.725C52.0891 259.946 52.7591 261.055 53.6038 261.99C54.4485 262.924 55.4512 263.665 56.5549 264.171C57.6585 264.677 58.8413 264.937 60.0359 264.937H87.0824C88.277 264.937 89.4598 264.677 90.5634 264.171C91.6671 263.665 92.6699 262.924 93.5145 261.99C94.3592 261.055 95.0293 259.946 95.4864 258.725C95.9435 257.505 96.1788 256.196 96.1788 254.875V221.029C96.1788 220.661 96.1092 220.298 95.9745 219.962C95.8399 219.627 95.6431 219.326 95.3969 219.079C95.1507 218.833 94.8605 218.646 94.5451 218.531C94.2297 218.417 93.896 218.376 93.5656 218.413Z" fill="#F2F2F2"/>
<path d="M132.648 184.614C132.306 183.501 130.986 183.291 129.924 183.294C127.554 183.302 125.186 183.413 122.822 183.628L123.059 183.326C122.431 183.032 121.74 182.947 121.068 183.079C120.416 183.283 119.88 184.111 120.175 184.787C120.396 185.294 121.014 185.616 120.97 186.177C120.895 187.127 119.233 186.811 118.975 187.721C118.939 187.901 118.955 188.09 119.02 188.26C119.086 188.43 119.197 188.574 119.339 188.671C119.626 188.86 119.949 188.973 120.283 189.002C123.8 189.567 127.39 189.055 130.662 187.522C131.234 187.292 131.756 186.931 132.194 186.464C132.41 186.227 132.566 185.931 132.646 185.607C132.725 185.282 132.726 184.94 132.648 184.614Z" fill="#E6E6E6"/>
</svg>
