<svg width="100" height="40" viewBox="0 0 100 40" fill="none" xmlns="http://www.w3.org/2000/svg">
<path d="M50 31.5C55.3588 31.5 60.3828 29.9569 64.1627 27.122C67.9425 24.2871 70 20.5192 70 16.5001C70 12.481 67.9425 8.71288 64.1627 5.87797C60.3828 3.04306 55.3588 1.5 50 1.5C44.6412 1.5 39.6172 3.04306 35.8373 5.87797C32.0575 8.71288 30 12.481 30 16.5001C30 20.5192 32.0575 24.2871 35.8373 27.122C39.6172 29.9569 44.6412 31.5 50 31.5ZM51.1483 28.9522C50.7655 28.988 50.3828 28.9881 50 28.9881C49.4737 28.9881 48.9474 28.9522 48.4211 28.9163C46.6986 26.9067 45.4067 24.7536 44.6412 22.4929H53.11C53.3971 23.0311 53.9234 23.5335 54.5454 23.8565C53.732 25.6507 52.5837 27.3373 51.1483 28.9522ZM55.6938 28.2345C56.6029 26.9785 57.3206 25.7225 57.8947 24.3948C59.2823 24.1795 60.3828 23.4618 60.9091 22.4929H64.5933C62.6794 25.1125 59.4737 27.1579 55.6938 28.2345ZM66.6028 16.5001C66.6028 17.6843 66.3636 18.8326 65.9808 19.945H60.8134C60.5263 19.4785 60.0478 19.0479 59.4737 18.7249C59.5694 17.9355 59.6172 17.146 59.6172 16.3565C59.6172 15.2441 59.5215 14.1317 59.3301 13.0551H65.933C66.4115 14.1317 66.6028 15.3159 66.6028 16.5001ZM64.5933 10.5071H58.756C58.134 8.53346 57.2249 6.66744 55.9808 4.87319C59.6172 5.91386 62.6794 7.9593 64.5933 10.5071ZM56.2679 16.3565C56.2679 16.9666 56.2201 17.5766 56.1722 18.1867C54.8325 18.402 53.732 19.0479 53.2057 19.945H43.9713C43.7799 18.8685 43.6363 17.756 43.6363 16.6795C43.6363 15.9977 43.6842 15.3159 43.7799 14.6341C45.0239 14.4546 46.0287 13.8446 46.6507 13.0551H55.9808C56.1722 14.1317 56.2679 15.2441 56.2679 16.3565ZM48.756 4.08372C49.1866 4.04784 49.6172 4.04784 50 4.04784C50.4784 4.04784 50.957 4.04784 51.4354 4.08372C53.1579 6.09328 54.4497 8.24638 55.2153 10.5071H46.89C46.6029 9.89709 46.0766 9.35882 45.4067 8.96408C46.2679 7.2416 47.3684 5.62677 48.756 4.08372ZM44.2105 4.80142C43.3971 5.94974 42.6794 7.16983 42.1053 8.38992C40.622 8.60523 39.4258 9.43058 38.9474 10.4712H35.4546C37.3206 7.92341 40.4306 5.87797 44.2105 4.80142ZM33.3971 16.5001C33.3971 15.3159 33.6364 14.1317 34.067 13.0551H39.2823C39.5694 13.4498 40 13.8087 40.4784 14.0958C40.3828 14.957 40.2871 15.8183 40.2871 16.6795C40.2871 17.7919 40.3828 18.8685 40.5742 19.945H34.067C33.5885 18.8326 33.3971 17.6843 33.3971 16.5001ZM41.1483 22.457C41.7704 24.3948 42.6794 26.2967 43.9234 28.0909C40.2871 27.0144 37.2727 25.0048 35.4067 22.457H41.1483Z" fill="#FDA902"/>
<path d="M22.0477 36.3678C20.8988 36.3678 19.9369 36.0874 19.1622 35.5265C18.3874 34.9653 18 34.2651 18 33.4253C18 32.6009 18.3874 31.9063 19.1622 31.3416C19.9369 30.7805 20.8988 30.5 22.0477 30.5C23.202 30.5 24.1928 30.7614 25.0202 31.2844L23.9451 32.1372C23.3917 31.8244 22.7593 31.6678 22.0477 31.6678C21.3204 31.6716 20.7328 31.8377 20.2848 32.1658C19.842 32.4903 19.6207 32.9064 19.6207 33.4139C19.6207 33.9596 19.8447 34.3927 20.2926 34.7135C20.7407 35.034 21.3283 35.1943 22.0556 35.1943C22.6407 35.1943 23.0886 35.1124 23.3996 34.9482V33.9405L22.3244 33.9462V32.8473H25.0202V35.5894C24.1981 36.1084 23.2072 36.3678 22.0477 36.3678ZM27.9216 32.4522V32.8873C28.3119 32.6009 28.7835 32.4579 29.3367 32.4579C29.5106 32.4579 29.6769 32.4675 29.8348 32.4865L29.5977 33.5686C29.4238 33.4539 29.1733 33.3929 28.8466 33.3853C28.4778 33.4044 28.1696 33.5972 27.9216 33.9636V36.3678H26.4117V32.5723L27.9216 32.4522ZM33.2738 36.4079C32.4886 36.4079 31.8322 36.2173 31.3055 35.8355C30.7834 35.4538 30.5228 34.9806 30.5228 34.4159C30.5228 33.8471 30.7834 33.372 31.3055 32.9902C31.8322 32.6085 32.4886 32.4179 33.2738 32.4179C34.0591 32.4179 34.7155 32.6085 35.2422 32.9902C35.7694 33.372 36.0329 33.8471 36.0329 34.4159C36.0329 34.9844 35.7694 35.4576 35.2422 35.8355C34.7155 36.2173 34.0591 36.4079 33.2738 36.4079ZM33.2738 35.4633C33.6797 35.4633 34.0119 35.3623 34.27 35.16C34.5281 34.9615 34.6574 34.7135 34.6574 34.4159C34.6574 34.118 34.5281 33.87 34.27 33.6715C34.0119 33.4692 33.6772 33.3682 33.2659 33.3682C32.86 33.3682 32.5282 33.4692 32.2697 33.6715C32.017 33.87 31.8903 34.118 31.8903 34.4159C31.8903 34.7135 32.017 34.9615 32.2697 35.16C32.5282 35.3623 32.8629 35.4633 33.2738 35.4633ZM40.3178 34.9825V32.4522H41.8277V36.3678H40.3178V36.0131C39.9541 36.2497 39.5221 36.3678 39.0214 36.3678C38.336 36.3678 37.8143 36.2173 37.456 35.9156C37.0923 35.6142 36.9104 35.2687 36.9104 34.8796V32.4522H38.4282V34.6046C38.4282 34.8643 38.5179 35.0664 38.6972 35.2115C38.8762 35.3566 39.1478 35.4328 39.5115 35.4405C39.8277 35.4252 40.0964 35.2725 40.3178 34.9825ZM44.6264 38.0168L43.1165 38.011V32.5723L44.6264 32.4522V32.767C45.0322 32.5571 45.4301 32.4522 45.8204 32.4522C46.6477 32.4522 47.3037 32.6488 47.7888 33.0417C48.2789 33.4311 48.5239 33.8871 48.5239 34.4102C48.5239 34.9329 48.2789 35.389 47.7888 35.7784C47.3037 36.1713 46.6477 36.3678 45.8204 36.3678C45.2773 36.3412 44.8794 36.2344 44.6264 36.0474V38.0168ZM44.6264 34.0551V34.6906C44.7004 35.1295 45.0798 35.3871 45.7648 35.4633C46.6292 35.4138 47.1168 35.0895 47.2275 34.4902C47.1905 33.7575 46.7029 33.3777 45.7648 33.351C45.0798 33.4311 44.7004 33.6658 44.6264 34.0551ZM52.0421 36.4079C51.2569 36.4079 50.6034 36.2173 50.0813 35.8355C49.5542 35.4538 49.291 34.9806 49.291 34.4159C49.291 33.8471 49.5542 33.372 50.0813 32.9902C50.6034 32.6085 51.2569 32.4179 52.0421 32.4179C52.8273 32.4179 53.4834 32.6085 54.0105 32.9902C54.5376 33.372 54.8012 33.8471 54.8012 34.4159C54.8012 34.9844 54.5376 35.4576 54.0105 35.8355C53.4834 36.2173 52.8273 36.4079 52.0421 36.4079ZM52.0421 35.4633C52.4531 35.4633 52.7852 35.3623 53.0383 35.16C53.2964 34.9615 53.4256 34.7135 53.4256 34.4159C53.4256 34.118 53.2964 33.87 53.0383 33.6715C52.7852 33.4692 52.4505 33.3682 52.0341 33.3682C51.6282 33.3682 51.2964 33.4692 51.0379 33.6715C50.7849 33.87 50.6586 34.118 50.6586 34.4159C50.6586 34.7135 50.7849 34.9615 51.0379 35.16C51.2964 35.3623 51.6308 35.4633 52.0421 35.4633ZM57.3232 33.8662V36.3678H55.8053V32.5723L57.3232 32.4522V32.8013C57.6604 32.5723 58.0925 32.4579 58.6196 32.4579C59.2996 32.4579 59.8212 32.6066 60.185 32.9045C60.5803 32.6066 61.1732 32.4579 61.9639 32.4579C62.6489 32.4579 63.1732 32.6066 63.5369 32.9045C63.8952 33.2059 64.0746 33.5533 64.0746 33.9462V36.3678H62.5647V34.2155C62.5647 33.9557 62.483 33.7537 62.3197 33.6086C62.1559 33.4673 61.8927 33.3929 61.529 33.3853C61.2284 33.4006 60.9703 33.5438 60.7542 33.8147C60.7332 33.8948 60.7227 33.977 60.7227 34.0608V36.3678H59.2124V34.2155C59.2124 33.9557 59.1307 33.7537 58.9674 33.6086C58.804 33.4673 58.5404 33.3929 58.1771 33.3853C57.8449 33.4006 57.5602 33.5609 57.3232 33.8662ZM66.1065 33.5914L65.5133 32.9274C66.1987 32.6142 66.9919 32.4579 67.893 32.4579C68.5414 32.4579 69.0525 32.5876 69.4268 32.8473C69.8062 33.1106 69.9961 33.5016 69.9961 34.0208V36.3678H68.4858V36.0588C68.0433 36.2649 67.6454 36.3678 67.2922 36.3678C66.5755 36.3678 66.0353 36.2573 65.6716 36.0359C65.3133 35.8146 65.1339 35.5091 65.1339 35.12C65.1339 34.7535 65.3053 34.4273 65.648 34.1409C65.9852 33.8547 66.5334 33.7115 67.2922 33.7115C67.6454 33.7115 68.0433 33.7899 68.4858 33.9462V33.8261C68.4753 33.54 68.1856 33.3834 67.6164 33.3567C66.968 33.3567 66.4648 33.4349 66.1065 33.5914ZM68.4858 35.1943V34.7535C68.3435 34.5512 68.0012 34.4502 67.4581 34.4502C66.8101 34.5036 66.4673 34.6868 66.4303 34.9997C66.4673 35.309 66.8101 35.4767 67.4581 35.5034C68.0012 35.5034 68.3435 35.4004 68.4858 35.1943ZM72.8659 33.8833V36.3678H71.348V32.5723L72.8659 32.4522V32.807C73.2293 32.5742 73.6616 32.4579 74.1623 32.4579C74.8473 32.4579 75.3694 32.6066 75.7277 32.9045C76.086 33.2059 76.2653 33.5533 76.2653 33.9462V36.3678H74.7551V34.2155C74.7551 33.9557 74.6654 33.7537 74.4865 33.6086C74.302 33.4673 74.0279 33.3929 73.6642 33.3853C73.3534 33.4006 73.0869 33.5667 72.8659 33.8833ZM79.048 36.3678H77.5381V32.4522H79.048V36.3678ZM77.4826 31.5191C77.4826 31.6754 77.5537 31.8053 77.6961 31.9082C77.8438 32.0114 78.0438 32.0629 78.2969 32.0629C78.5448 32.0629 78.7423 32.0114 78.8897 31.9082C79.032 31.8053 79.1032 31.6754 79.1032 31.5191C79.1032 31.3626 79.032 31.2308 78.8897 31.1241C78.7423 31.0171 78.5394 30.9637 78.2813 30.9637C78.0388 30.9637 77.8438 31.0171 77.6961 31.1241C77.5537 31.2308 77.4826 31.3626 77.4826 31.5191ZM81.0639 33.5914L80.4711 32.9274C81.1562 32.6142 81.9494 32.4579 82.8508 32.4579C83.4988 32.4579 84.0129 32.5876 84.3923 32.8473C84.7666 33.1106 84.9535 33.5016 84.9535 34.0208V36.3678H83.4436V36.0588C83.0062 36.2649 82.6108 36.3678 82.2576 36.3678C81.5355 36.3678 80.9953 36.2573 80.637 36.0359C80.2733 35.8146 80.0917 35.5091 80.0917 35.12C80.0917 34.7535 80.2627 34.4273 80.6054 34.1409C80.9427 33.8547 81.4934 33.7115 82.2576 33.7115C82.6054 33.7115 83.0007 33.7899 83.4436 33.9462V33.8261C83.4382 33.54 83.151 33.3834 82.5818 33.3567C81.9334 33.3567 81.4277 33.4349 81.0639 33.5914ZM83.4436 35.1943V34.7535C83.3013 34.5512 82.9586 34.4502 82.4159 34.4502C81.7675 34.5036 81.4252 34.6868 81.3881 34.9997C81.4252 35.309 81.7675 35.4767 82.4159 35.5034C82.9586 35.5034 83.3013 35.4004 83.4436 35.1943Z" fill="#FD2D02"/>
</svg>
